<svg width="120" height="31" viewBox="0 0 120 31" fill="none" xmlns="http://www.w3.org/2000/svg">
<mask id="mask0_49747_208949" style="mask-type:luminance" maskUnits="userSpaceOnUse" x="0" y="0" width="120" height="31">
<path d="M120 0H0V30.8571H120V0Z" fill="white"/>
</mask>
<g mask="url(#mask0_49747_208949)">
<path fill-rule="evenodd" clip-rule="evenodd" d="M110.451 12.4795C115.726 12.4795 120 16.5914 120 21.667C120 26.7427 115.726 30.8564 110.451 30.8564C105.175 30.8562 100.902 26.7408 100.902 21.667C100.902 16.5933 105.176 12.4797 110.451 12.4795ZM52.3217 30.835H47.8783V29.4268C46.4004 30.33 44.6493 30.8554 42.7689 30.8555C37.4938 30.8555 33.2193 26.7415 33.2191 21.666V21.6621C33.2192 16.5883 37.4948 12.4748 42.7699 12.4746C42.9075 12.4746 43.0475 12.4816 43.1869 12.4902C44.9074 12.5625 46.5095 13.0728 47.8773 13.9072V12.4707H52.3217V30.835ZM60.1107 23.2158C60.1107 24.2723 60.5097 25.1013 61.2943 25.6846C62.06 26.2558 62.9941 26.5439 64.0677 26.5439C65.1413 26.5439 66.0736 26.2558 66.8392 25.6846C67.6238 25.1013 68.0219 24.2723 68.0219 23.2158V12.4707H72.7494V23.2158C72.7494 25.6108 71.8965 27.5003 70.2103 28.832C68.5122 30.174 66.4474 30.8554 64.0697 30.8555C61.6919 30.8555 59.6251 30.174 57.9252 28.832C56.2407 27.502 55.3851 25.6109 55.3851 23.2158V12.4707H60.1107V23.2158ZM86.6947 26.418C86.2646 27.9766 85.8196 29.1054 85.3568 29.8057C84.894 30.5042 83.9852 30.8535 82.6312 30.8535C81.4425 30.8535 80.5922 30.4648 80.0795 29.6855C79.5668 28.9079 79.1298 27.8184 78.765 26.418H78.767L74.8988 12.4727L79.7767 12.4688L82.7806 23.25L85.7523 12.4727L90.5648 12.4688L86.6947 26.418ZM98.0853 30.8516H92.8822V12.4727H98.0853V30.8516ZM15.3871 2.12695C21.6035 -0.290446 27.1611 0.894773 29.7523 5.36133H29.7543C33.1197 11.1596 29.4666 20.5659 21.5951 26.3711C13.7252 32.1763 4.61683 32.1799 1.25135 26.3799C-0.875291 22.715 -0.196523 17.6083 2.57361 12.8818C1.76838 15.2906 1.80177 17.6587 2.86853 19.498C5.16908 23.4601 11.3938 23.4585 16.7738 19.4912C22.1522 15.5254 25.0894 8.93031 22.7894 4.96777C21.4009 2.57617 18.5839 1.62971 15.3871 2.12695ZM42.767 16.7314C39.9316 16.7314 37.6344 18.9383 37.6342 21.667C37.6342 24.3958 39.9332 26.6055 42.767 26.6055C45.6007 26.6054 47.8978 24.3958 47.8978 21.667C47.8976 18.9401 45.6023 16.7315 42.767 16.7314ZM110.451 16.7314C107.615 16.7317 105.319 18.9384 105.319 21.667C105.319 24.3957 107.615 26.6052 110.451 26.6055C113.284 26.6055 115.581 24.3941 115.581 21.667C115.581 18.94 113.286 16.7314 110.451 16.7314ZM14.933 2.80078C17.9369 2.3655 20.6294 3.05394 21.932 5.31445C21.9785 5.39532 22.089 5.62151 22.1303 5.7041C18.8664 5.58194 15.035 6.82235 11.4906 9.43066C7.65887 12.2507 5.09117 16.146 4.00721 19.835C3.73019 19.484 3.58021 19.2997 3.39783 18.9521C2.47402 17.199 2.38645 14.859 3.12439 12.5967C4.23932 10.4064 6.28548 7.81324 9.48572 5.63672C11.2717 4.42027 13.104 3.33072 14.933 2.80078ZM72.4076 2.21777C72.6552 2.21785 72.8771 2.31958 73.0697 2.51562C73.2572 2.70317 73.35 2.93723 73.35 3.19531C73.35 3.45334 73.2591 3.67874 73.0785 3.85938V3.86133C72.8841 4.0523 72.6549 4.08008 72.433 4.08008H66.1136C65.8316 4.08008 65.6889 4.23614 65.6888 4.54395L65.6849 5.7998L65.6752 7.60352L65.6713 9.26367C65.6713 9.50799 65.5768 9.72866 65.391 9.9248C65.2103 10.1106 64.9862 10.2051 64.7299 10.2051C64.4856 10.205 64.2652 10.1106 64.0863 9.9248C63.9039 9.7407 63.8129 9.51488 63.8129 9.26367V6.74609C63.8129 6.38316 63.849 3.9833 63.849 3.96094C63.8421 2.83052 64.4136 2.24358 65.556 2.21777H72.4076ZM34.1351 1.7168C34.4155 1.71687 34.7835 1.80531 34.9554 2.05469C35.0311 2.16986 35.1138 2.21433 35.2445 2.21777C35.2789 2.21777 35.3548 2.22684 35.4408 2.22168H40.4857C40.754 2.22175 40.9724 2.31136 41.1478 2.49023V2.48633C41.3336 2.67383 41.4261 2.90261 41.4262 3.16406C41.4262 3.42559 41.3351 3.65114 41.1527 3.83008C40.9858 3.99517 40.7827 4.07422 40.5092 4.07422H35.7826C35.561 4.07603 35.3874 4.14319 35.2533 4.26855C35.1243 4.38727 35.0502 4.57883 35.0502 4.80078V9.26172C35.0502 9.52668 34.9625 9.74903 34.7836 9.92969C34.6064 10.112 34.3913 10.203 34.1351 10.2031C33.8788 10.2031 33.6549 10.1082 33.4691 9.91895C33.2833 9.72969 33.1888 9.50583 33.1888 9.25293V3.97168C33.1888 3.91834 33.1922 3.8697 33.1957 3.82324V2.70312C33.1957 2.44685 33.2296 2.23686 33.4066 2.03906C33.5924 1.83087 33.8547 1.7168 34.1351 1.7168ZM43.558 0.0117188C43.8126 0.0117188 44.0333 0.105193 44.2123 0.291016C44.3843 0.475095 44.475 0.697089 44.475 0.948242V2.21289H50.558C50.8125 2.21297 51.0346 2.30737 51.222 2.5C51.4096 2.68925 51.5004 2.91353 51.5004 3.17676C51.5003 3.43973 51.4111 3.66322 51.2289 3.84375C51.0259 4.04502 50.7901 4.07225 50.5853 4.07227H44.4769V7.6377C44.4769 7.85105 44.5439 8.01842 44.6781 8.14746C44.8106 8.27476 44.9864 8.33593 45.2152 8.33594H50.5951C50.8652 8.33594 51.081 8.42602 51.2582 8.6084V8.60449C51.4492 8.79892 51.5365 9.00093 51.5365 9.26074C51.5364 9.52028 51.4487 9.74354 51.2631 9.92578C51.0824 10.1064 50.8657 10.1943 50.6215 10.1943L44.3344 10.2012C43.1782 10.2012 42.6137 9.61995 42.6137 8.42773V0.973633C42.6137 0.715685 42.7084 0.486799 42.8959 0.295898C43.0782 0.105047 43.3035 0.0118093 43.558 0.0117188ZM53.7748 0C54.0294 0 54.248 0.0947988 54.4252 0.282227C54.6024 0.468049 54.6908 0.689969 54.6908 0.939453L54.7006 7.63574C54.7006 7.84899 54.7662 8.01259 54.9037 8.1416C55.043 8.26888 55.2221 8.33491 55.4525 8.33496H59.9076C60.1294 8.33491 60.3052 8.26888 60.4428 8.1416C60.5785 8.0126 60.642 7.84896 60.642 7.63574L60.6312 4.78125C60.6312 4.56801 60.5717 4.39732 60.4428 4.2666C60.3103 4.13416 60.1427 4.06934 59.9242 4.06934H56.4164C56.1617 4.06934 55.9399 3.97419 55.7523 3.7832C55.57 3.59224 55.473 3.36695 55.473 3.10547C55.4731 2.84402 55.5649 2.61886 55.7455 2.43652C55.9398 2.24741 56.1699 2.21781 56.39 2.21777V2.21484L60.766 2.21973C61.9272 2.23524 62.4934 2.80446 62.4935 3.96387V8.41699C62.4935 9.59891 61.8999 10.1991 60.725 10.1992L54.6029 10.1963C53.4261 10.1963 52.8276 9.59233 52.8275 8.39844V0.964844C52.8276 0.705204 52.9223 0.477995 53.1097 0.287109C53.2954 0.096442 53.5205 0.000104521 53.7748 0ZM70.0345 5.63477C70.3201 5.63477 70.5715 5.73102 70.7728 5.91504C70.9845 6.10602 71.0912 6.34915 71.0912 6.63477V6.63672C71.0911 6.92041 70.9843 7.16287 70.7728 7.35547C70.5698 7.53957 70.3202 7.63379 70.0345 7.63379H68.2474C67.9601 7.63379 67.7119 7.54128 67.5072 7.35547C67.2939 7.16281 67.1889 6.9203 67.1888 6.63477C67.1888 6.34915 67.2956 6.10602 67.5072 5.91504C67.7119 5.73106 67.9602 5.63477 68.2474 5.63477H70.0345Z" fill="#FFCD00"/>
</g>
</svg>
